<svg xmlns="http://www.w3.org/2000/svg" xmlns:xlink="http://www.w3.org/1999/xlink" version="1.1" x="0px" y="0px" viewBox="0 0 100 125" style="enable-background:new 0 0 100 100;" xml:space="preserve"><path fill="#1387C1" d="M40.5565071,77.9196548c-13.6361084,0-24.7298908-13.2402573-24.7298908-29.514534  c0-16.2797699,11.0937824-29.524519,24.7298908-29.524519c11.0837975,0,20.8812103,8.8938942,23.8253746,21.627985  l-3.4862747,0.8056755C58.3288231,30.2124939,49.9650574,22.458725,40.5565071,22.458725  c-11.6633472,0-21.1517658,11.639389-21.1517658,25.9463959c0,14.3015137,9.4884186,25.936409,21.1517658,25.936409  c3.5177231,0,7.0030022-1.083725,10.0794487-3.1343536l1.9847412,2.9771118  C48.9547157,76.6277771,44.7830658,77.9196548,40.5565071,77.9196548z"/><path fill="#1387C1" d="M49.3640442,24.1833935c-1.0737381-4.5974503-4.6972847-7.8081779-8.8110313-7.8081779  c-4.1082535,0-7.7273102,3.2107277-8.8010483,7.8081779L28.2676868,23.36973  c1.4541111-6.2252769,6.5058155-10.5726385,12.285326-10.5726385c5.7854996,0,10.841198,4.3473616,12.295311,10.5726385  L49.3640442,24.1833935z"/><rect fill="#1387C1" x="20.5179119" y="33.1297035" width="40.0856743" height="3.5781243"/><rect fill="#1387C1" x="38.7714386" y="34.918766" width="3.5781243" height="41.1833725"/><polygon fill="#1387C1" points="59.7140503,33.6468544 58.3792419,30.3273048 64.753273,27.764513 68.1437073,17.8263321 71.5301437,18.9814358   67.874649,29.6958408 66.8488312,30.7780647 "/><polygon fill="#1387C1" points="21.3879833,33.6468544 14.2531996,30.7780647 13.2273846,29.6958408 9.571887,18.9814358 12.9583263,17.8263321   16.3487587,27.764513 22.7227917,30.3273048 "/><polygon fill="#1387C1" points="11.4013824,76.0557175 8.0149441,74.9006119 11.6704407,64.186203 12.6962566,63.103981 19.8310413,60.2351913   21.1658478,63.5547409 14.7918158,66.1175308 "/><polygon fill="#1387C1" points="17.6026993,50.1931839 10.652113,50.1931839 9.4500875,49.7294426 2.5,43.4267921 4.9040523,40.7761459   11.3424797,46.6150589 17.6026993,46.6150589 "/><path fill="#1387C1"  d="M72.3937302,87.2029114c-13.8437691,0-25.1062775-11.2625046-25.1062775-25.1062737  s11.2625084-25.1062737,25.1062775-25.1062737S97.5,48.2528687,97.5,62.0966377S86.2374954,87.2029114,72.3937302,87.2029114z   M72.3937302,40.5684891c-11.8705101,0-21.5281525,9.6576385-21.5281525,21.5281487s9.6576424,21.5281487,21.5281525,21.5281487  S93.921875,73.9671402,93.921875,62.0966377S84.2642365,40.5684891,72.3937302,40.5684891z"/><path fill="#1387C1" d="M74.4448624,74.1253815c-0.3239746,0-0.6504364-0.0234604-0.9774017-0.0708847l-7.2865295-1.0562592l0.5131531-3.5411911  l7.2865372,1.0562668c0.8331299,0.1208038,1.6587753-0.0898514,2.3301773-0.5920258  c0.6723938-0.5021744,1.1086731-1.2359695,1.228981-2.0661087c0.1203003-0.8301392-0.089859-1.6577759-0.5920334-2.3301697  c-0.5021744-0.6724014-1.2359695-1.1086807-2.0661011-1.228981l-5.508461-0.8605919  c-1.7566147-0.2540817-3.3265381-1.1880493-4.4007721-2.6261864c-1.0737343-1.4381371-1.5229988-3.2082329-1.2659187-4.984314  c0.2570763-1.7760849,1.1910439-3.3460083,2.6291847-4.4197426c1.4381332-1.0737381,3.2067337-1.5239983,4.984314-1.2664223  l7.2865295,1.0562668l-0.5131531,3.5411835l-7.2865372-1.056263c-0.8321304-0.1193047-1.6577759,0.0903511-2.3301697,0.5920258  c-0.6724014,0.5021744-1.1086807,1.2359695-1.228981,2.0661087c-0.1203079,0.8301353,0.0898514,1.6577759,0.5920258,2.3301735  c0.5016785,0.6723938,1.2354736,1.1086807,2.0661087,1.228981l5.5084534,0.8605881  c1.7566147,0.2545815,3.3265381,1.1880493,4.4002762,2.6261864c1.0737305,1.4381371,1.5234985,3.2082329,1.2664185,4.9843178  s-1.1910477,3.3460007-2.6291809,4.4197388C77.2782059,73.6646423,75.8834991,74.1253815,74.4448624,74.1253815z"/><rect fill="#1387C1" x="70.6046677" y="47.2335434" width="3.5781243" height="4.81709"/><rect fill="#1387C1" x="70.6046677" y="72.2210083" width="3.5781243" height="4.7392178"/></svg>