<svg width="96px" height="120px" xmlns="http://www.w3.org/2000/svg" version="1.1" fill-rule="evenodd" stroke-linejoin="bevel" stroke-width="0.501" transform="rotate(0) scale(1, 1)">

 <g>
  <title>Layer 1</title>
  <g id="svg_1" transform="scale(1 -1)" font-size="16" font-family="Times New Roman" stroke="#1387c1" fill="none">
   <g id="svg_2">
    <g id="svg_3">
     <path id="svg_4" stroke-miterlimit="79.84032" marker-end="none" marker-start="none" stroke-width="3" stroke-linejoin="round" fill="#1387c1" stroke-linecap="round" d="m23.675,-86.505l-0.133,4.044l-1.654,1.856l-12.295,0c-0.828,0 -1.5,0.672 -1.5,1.5c0,0.827 0.672,1.5 1.5,1.5l9.619,0l-1.739,1.95l-0.047,0.056c-3.466,4.288 -3.493,7.865 -1.971,11.828l4.583,11.732c0.478,1.131 1.528,3.057 3.069,4.129l7.783,5.315c-0.581,0.533 -1.128,1.058 -1.629,1.567c-1.552,1.575 -3.117,3.403 -3.332,4.957c-0.017,0.123 -0.027,0.251 -0.027,0.384c0,0.121 0.005,0.241 0.017,0.358c-0.04,0.252 -0.016,0.519 0.086,0.78c6.914,17.67 12.095,26.639 21.751,27.909l0.391,0c9.782,-1.286 14.926,-10.463 21.751,-27.909c0.101,-0.26 0.125,-0.526 0.086,-0.777c0.012,-0.118 0.018,-0.239 0.018,-0.361c0,-0.132 -0.01,-0.259 -0.027,-0.381c-0.212,-1.539 -1.812,-3.42 -3.324,-4.957c-0.503,-0.511 -1.051,-1.038 -1.633,-1.573l7.779,-5.313c1.54,-1.071 2.591,-2.996 3.069,-4.129l4.582,-11.731c1.526,-3.974 1.494,-7.542 -1.971,-11.828l-0.047,-0.056l-1.74,-1.95l9.196,0c0.827,0 1.5,-0.673 1.5,-1.5c0,-0.828 -0.673,-1.5 -1.5,-1.5l-11.871,0l-1.656,-1.857l-0.132,-4.043c-0.027,-0.808 -0.691,-1.45 -1.499,-1.45l-45.553,0c-0.809,0 -1.473,0.642 -1.5,1.45zm45.601,1.55l0.054,1.663l-42.759,0l0.055,-1.663l42.65,0zm0.152,4.663l0.882,26.921c0,0.533 -0.456,0.99 -1.015,0.99l-42.687,0c-0.56,0 -1.015,-0.457 -1.015,-0.99l0.88,-26.921l42.955,0zm-25.363,3.599l-0.258,2.893l-1.967,0c-0.745,0 -1.351,0.605 -1.351,1.349l0,0.481c0,0.539 0.317,1.004 0.773,1.219c-1.279,1.492 -2.052,3.43 -2.052,5.545c0,4.706 3.82,8.525 8.529,8.525c4.708,0 8.529,-3.819 8.529,-8.525c0,-2.115 -0.773,-4.053 -2.052,-5.545c0.455,-0.215 0.771,-0.68 0.771,-1.219l0,-0.481c0,-0.744 -0.605,-1.349 -1.349,-1.349l-1.966,0l-0.259,-2.893l-7.348,0zm3.03,4.653l0.299,1.283c0.069,0.297 -0.117,0.594 -0.412,0.662c-0.297,0.069 -0.593,-0.116 -0.661,-0.412l-0.299,-1.284c-0.069,-0.296 0.117,-0.593 0.412,-0.661c0.298,-0.069 0.593,0.115 0.661,0.412zm2.592,0.249l-0.299,1.284c-0.069,0.297 -0.365,0.481 -0.662,0.412c-0.297,-0.068 -0.482,-0.366 -0.412,-0.662l0.299,-1.283c0.069,-0.297 0.367,-0.481 0.662,-0.412c0.297,0.068 0.481,0.366 0.412,0.661zm-2.893,5.252c0,0.127 -0.008,0.253 -0.026,0.375c-1.704,0.096 -3.307,0.442 -4.725,0.984c-0.247,-0.395 -0.389,-0.86 -0.389,-1.359c0,-1.419 1.15,-2.571 2.572,-2.571c1.416,0 2.568,1.152 2.568,2.571zm7.031,0c0,0.499 -0.144,0.964 -0.389,1.359c-1.419,-0.542 -3.02,-0.888 -4.726,-0.984c-0.018,-0.122 -0.026,-0.248 -0.026,-0.375c0,-1.419 1.151,-2.571 2.57,-2.571c1.421,0 2.571,1.152 2.571,2.571zm-5.736,20.563l1.85,0.413c1.663,0.454 3.233,1.12 4.646,2.204l0.738,0.627c0.062,0.054 0.109,0.118 0.141,0.188l0.94,2.109c0.619,1.502 1.158,3.047 1.625,4.755l0.562,2.329c0.055,0.23 -0.064,0.467 -0.291,0.58l-0.799,0.392l-19.098,0l-0.8,-0.392c-0.227,-0.113 -0.346,-0.35 -0.291,-0.58l0.562,-2.329c0.467,-1.708 1.006,-3.253 1.625,-4.755l0.94,-2.109c0.031,-0.07 0.08,-0.134 0.141,-0.188l0.723,-0.614c1.429,-1.097 2.998,-1.763 4.642,-2.212l1.869,-0.418l0.275,0zm0.205,7.402l-0.179,5.024l2.294,-5.024l-2.115,0zm15.277,11.46l-15.4,15.386c-0.292,0.292 -0.293,0.768 0,1.061c0.292,0.292 0.768,0.293 1.061,0l12.467,-12.455c-4.09,8.224 -7.734,12.091 -12.55,13.25l-1.198,0.22l-1.186,-0.218c-6.027,-1.447 -10.256,-7.16 -15.882,-20.604c0.679,0.284 1.385,0.535 2.093,0.757c3.901,1.219 9.196,1.951 14.976,1.951c0.953,0 1.894,-0.02 2.818,-0.059l-2.599,2.597c-0.292,0.292 -0.293,0.768 0,1.061c0.292,0.292 0.768,0.293 1.061,0l3.796,-3.793c0.905,-0.07 1.789,-0.159 2.647,-0.265l-7.504,7.497c-0.292,0.292 -0.293,0.768 0,1.061c0.292,0.292 0.768,0.293 1.061,0l8.845,-8.836c0.027,-0.028 0.052,-0.057 0.074,-0.088c1.067,-0.185 2.081,-0.398 3.033,-0.638l-13.013,13.001c-0.292,0.292 -0.293,0.768 0,1.061c0.292,0.292 0.768,0.293 1.061,0l14.893,-14.878c0.035,-0.036 0.066,-0.074 0.092,-0.114c0.271,-0.1 0.538,-0.206 0.802,-0.317c-0.493,1.179 -0.975,2.298 -1.448,3.362z"/>
    </g>
   </g>
  </g>
 </g>
</svg>