<svg xmlns="http://www.w3.org/2000/svg" version="1.1" viewBox="-5.0 -10.0 110.0 135.0">
 <path fill="#1387C1" d="m37.219 32.395-0.83594-5.0117-5.6562-0.003906-0.83203 5.0156c-0.078125 0.46484-0.44141 0.82812-0.90625 0.91016-1.9336 0.47266-3.7773 1.2422-5.4727 2.2812-0.39062 0.23828-0.89062 0.21094-1.2539-0.066407l-4.1055-2.9336-4 4 2.957 4.1367c0.25781 0.36328 0.27344 0.84375 0.042969 1.2188-1.0508 1.7188-1.8281 3.5859-2.3008 5.543-0.10156 0.43359-0.45312 0.76172-0.89062 0.83594l-5.0156 0.83594v5.6562l5.0156 0.83594h-0.003906c0.46484 0.078124 0.83203 0.44141 0.91016 0.90625 0.23438 0.95312 0.53906 1.8828 0.91797 2.7852 0.38672 0.92969 0.84375 1.8281 1.3672 2.6836 0.23828 0.39062 0.21094 0.89062-0.066406 1.2539l-2.9336 4.1055 4 4 4.1367-2.957h0.003906c0.35938-0.25781 0.83984-0.27344 1.2188-0.042969 1.7148 1.0508 3.582 1.8281 5.5352 2.3008 0.4375 0.10156 0.76953 0.45312 0.84375 0.89453l0.83594 5.0117h5.6562l0.83203-5.0117c0.078125-0.46484 0.44141-0.83203 0.90625-0.91016 1.9336-0.47266 3.7773-1.2422 5.4766-2.2812 0.39063-0.23828 0.88672-0.21094 1.25 0.066406l4.1055 2.9336 4-4-2.957-4.1406c-0.25781-0.36328-0.27344-0.84375-0.042969-1.2227 1.0508-1.7148 1.8281-3.582 2.2969-5.5391 0.10547-0.43359 0.45703-0.76172 0.89453-0.83594l5.0117-0.83594v-5.6562l-5.0117-0.83594c-0.46484-0.074218-0.83203-0.44141-0.91016-0.90625-0.47266-1.9297-1.2422-3.7773-2.2812-5.4727-0.23828-0.39062-0.21094-0.88672 0.066407-1.25l2.9336-4.1055-4-4-4.1367 2.957h-0.003906c-0.35938 0.25391-0.83984 0.27344-1.2188 0.042969-1.7148-1.0508-3.5859-1.8281-5.5391-2.3008-0.43359-0.10156-0.76172-0.45703-0.83594-0.89453zm18.832 37.652h30.082c0.29688 0 0.57813 0.11719 0.78516 0.32422 0.21094 0.21094 0.32812 0.49219 0.32812 0.78516v5.4336c0 0.61328-0.5 1.1094-1.1133 1.1094h-30.082c-0.60938-0.003907-1.1055-0.5-1.1016-1.1094v-5.4336c0-0.60938 0.49609-1.1094 1.1094-1.1094zm28.973 2.2227v3.2031h-27.867v-3.2109zm-20.031-5.3008c-0.59766-0.019531-1.0742-0.51172-1.0742-1.1133 0-0.59766 0.47656-1.0898 1.0742-1.1094h21.141c0.30078-0.007813 0.59375 0.10547 0.80859 0.3125 0.21484 0.21094 0.33594 0.5 0.33594 0.79688 0 0.30078-0.12109 0.58984-0.33594 0.80078-0.21484 0.20703-0.50781 0.32031-0.80859 0.3125zm0-5.1211v-0.003906c-0.59766-0.015625-1.0742-0.50781-1.0742-1.1094 0-0.59766 0.47656-1.0898 1.0742-1.1094h21.141c0.30078-0.007812 0.59375 0.10547 0.80859 0.3125 0.21484 0.21094 0.33594 0.49609 0.33594 0.79688s-0.12109 0.58984-0.33594 0.79688c-0.21484 0.21094-0.50781 0.32422-0.80859 0.3125zm0-5.1211v-0.003906c-0.61328 0-1.1094-0.49609-1.1094-1.1094s0.49609-1.1094 1.1094-1.1094h21.141c0.61328 0 1.1133 0.49609 1.1133 1.1094s-0.5 1.1094-1.1133 1.1094zm0-5.1211v-0.003907c-0.59766-0.019531-1.0742-0.50781-1.0742-1.1094 0-0.60156 0.47656-1.0898 1.0742-1.1094h21.141c0.30078-0.011718 0.59375 0.10156 0.80859 0.3125 0.21484 0.20703 0.33594 0.49609 0.33594 0.79688 0 0.30078-0.12109 0.58984-0.33594 0.79687-0.21484 0.21094-0.50781 0.32422-0.80859 0.3125zm-31.438-12.105v-0.003906c5.957 0 11.09 4.207 12.254 10.051 1.1641 5.8398-1.9648 11.691-7.4648 13.977-5.5039 2.2812-11.855 0.35547-15.164-4.5977-3.3125-4.9531-2.6641-11.555 1.5469-15.77 2.3398-2.3438 5.5156-3.6602 8.8281-3.6562zm7.2617 5.2266 0.003906-0.003906c3.4648 3.4648 4 8.8945 1.2773 12.969-2.7227 4.0742-7.9414 5.6562-12.469 3.7812-4.5273-1.8711-7.0977-6.6836-6.1445-11.488 0.95703-4.8047 5.1719-8.2656 10.07-8.2656 2.7266-0.007812 5.3398 1.0781 7.2656 3.0039zm-8.3711-19.57v-14.496c0.007813-4.4297 3.5977-8.0195 8.0312-8.0273h44.762c4.4336 0.007813 8.0234 3.5977 8.0312 8.0273v78.68c-0.007812 4.4297-3.5977 8.0195-8.0312 8.0273h-44.762c-4.4336-0.007813-8.0234-3.5977-8.0312-8.0273v-10.527h-2.293c-0.75 0-1.3906-0.54297-1.5156-1.2852l-0.8125-4.875c-0.84375-0.23047-1.668-0.51562-2.4766-0.85156-0.80859-0.33203-1.5938-0.71875-2.3516-1.1484l-4.0234 2.8711c-0.5625 0.40625-1.3281 0.38281-1.8633-0.058594-0.042969-0.035156-0.082031-0.070313-0.11719-0.10547l-4.8086-4.8125c-0.53516-0.52734-0.60547-1.3672-0.16797-1.9766l2.8711-4.0195 0.003906-0.003906c-0.86328-1.5195-1.5352-3.1445-2-4.8281l-4.875-0.8125v-0.003906c-0.74219-0.12109-1.2852-0.76172-1.2891-1.5156v-6.8047c0.003907-0.75391 0.54688-1.3945 1.2891-1.5156l4.875-0.8125c0.23047-0.84375 0.51562-1.668 0.84766-2.4766 0.33594-0.80859 0.71875-1.5938 1.1523-2.3555l-2.8711-4.0195h-0.003906c-0.40625-0.5625-0.37891-1.3281 0.0625-1.8633 0.035156-0.042968 0.070313-0.082031 0.10547-0.11719l4.8125-4.8125c0.52734-0.53516 1.3672-0.60547 1.9766-0.16406l4.0234 2.8711c1.5195-0.86328 3.1406-1.5352 4.8281-2l0.8125-4.875v0.003906c0.125-0.74219 0.76562-1.2852 1.5156-1.2891zm2.2188 53.648h2.293v0.003906c0.75-0.003906 1.3945-0.54688 1.5156-1.2891l0.8125-4.875c1.6875-0.46094 3.3086-1.1328 4.832-2l4.0234 2.8711-0.003906 0.003906c0.61328 0.4375 1.4492 0.37109 1.9805-0.16406l4.8125-4.8125v0.003906c0.035156-0.039063 0.070312-0.078125 0.10547-0.11719 0.44141-0.53516 0.46484-1.3008 0.0625-1.8633l-2.8711-4.0195-0.003906-0.003906c0.86328-1.5195 1.5352-3.1406 2-4.8281l4.875-0.8125c0.74219-0.125 1.2852-0.76562 1.2852-1.5156v-6.8047c0-0.75-0.54297-1.3945-1.2852-1.5156l-4.875-0.8125c-0.46484-1.6875-1.1367-3.3086-2-4.832l2.8711-4.0195h0.003906c0.4375-0.60938 0.36719-1.4492-0.16797-1.9766l-4.8125-4.8086 0.003906-0.003907c-0.53125-0.53125-1.3711-0.60156-1.9805-0.16406l-4.0234 2.8711c-1.5234-0.86328-3.1445-1.5352-4.832-2l-0.8125-4.875c-0.12109-0.74219-0.76172-1.2852-1.5156-1.2891h-2.293v-14.496c0.007813-3.2031 2.6055-5.8008 5.8125-5.8086h8.1797l1.8828 5.0273c0.21875 0.58984 0.77734 0.98047 1.4062 0.98047h21.824c0.62891-0.003906 1.1875-0.39453 1.4062-0.98047l1.8828-5.0273h8.1797c3.207 0.003907 5.8086 2.6016 5.8125 5.8086v70.883l-56.387 0.003906zm40.031-73.953h-23.684l1.418 3.7891h20.844l1.418-3.7891zm-18.18 81.438c-1.75 0-3.168 1.418-3.168 3.168s1.418 3.168 3.168 3.168h12.684c1.75 0 3.168-1.418 3.168-3.168s-1.418-3.168-3.168-3.168zm12.68 2.2227-12.68-0.003907c-0.52344 0-0.94531 0.42578-0.94531 0.94922 0 0.52344 0.42188 0.94531 0.94531 0.94531h12.684c0.52344 0 0.94531-0.42188 0.94531-0.94531 0-0.52344-0.42188-0.94922-0.94531-0.94922zm0.52734-54.871-6.3047 4.6992v-0.003906c-0.28516 0.21094-0.44922 0.54297-0.44531 0.89844 0 0.35547 0.17188 0.68359 0.46094 0.89062l6.2891 4.6875c0.49219 0.36328 1.1836 0.26172 1.5508-0.23047 0.36328-0.49219 0.25781-1.1836-0.23047-1.5469l-5.1133-3.8086 5.1133-3.8086v-0.003907c0.47266-0.36719 0.5625-1.0469 0.20703-1.5273-0.35938-0.48438-1.0352-0.59375-1.5273-0.25zm10.359 1.7773 5.1133 3.8086-5.1133 3.8086c-0.46875 0.37109-0.55859 1.0469-0.20312 1.5273 0.35547 0.48047 1.0312 0.58984 1.5234 0.25l6.2891-4.6875c0.09375-0.066406 0.17578-0.14844 0.24609-0.24219 0.36328-0.48828 0.26172-1.1836-0.23047-1.5469l-6.3047-4.6992c-0.49219-0.35547-1.1797-0.25-1.5391 0.23828s-0.26172 1.1719 0.21875 1.5391zm-3.9766-2.5156-3.2305 12.074c-0.16016 0.58984 0.19141 1.1992 0.78516 1.3555 0.58984 0.16016 1.1992-0.19141 1.3555-0.78516l3.2383-12.074c0.082032-0.28516 0.046875-0.59375-0.097656-0.85547-0.14844-0.25781-0.39453-0.44922-0.68359-0.52734-0.28906-0.078125-0.59375-0.035156-0.85156 0.11719-0.25781 0.15234-0.44141 0.40234-0.51172 0.69531zm-41.441 50.863v5.5781c0.007813 3.207 2.6055 5.8047 5.8125 5.8086h44.762c3.2109-0.003906 5.8125-2.6055 5.8125-5.8125v-5.5781z" fill-rule="evenodd"/>
</svg>