<svg xmlns="http://www.w3.org/2000/svg" viewBox="0 0 100 125" x="0px" y="0px">
  <title>tech icons 2</title>
  <path fill="#1387C1" d="M87.5,63.625H80.125V50a2.0001,2.0001,0,0,0-2-2H52V36.375h7.375a2.0001,2.0001,0,0,0,2-2v-12.5a2.0001,2.0001,0,0,0-2-2H40.625a2.0001,2.0001,0,0,0-2,2v12.5a2.0001,2.0001,0,0,0,2,2H48V48H21.875a2.0001,2.0001,0,0,0-2,2V63.625H12.5a2.0001,2.0001,0,0,0-2,2v12.5a2.0001,2.0001,0,0,0,2,2H31.25a2.0001,2.0001,0,0,0,2-2v-12.5a2.0001,2.0001,0,0,0-2-2H23.875V52H48V63.625H40.625a2.0001,2.0001,0,0,0-2,2v12.5a2.0001,2.0001,0,0,0,2,2h18.75a2.0001,2.0001,0,0,0,2-2v-12.5a2.0001,2.0001,0,0,0-2-2H52V52H76.125V63.625H68.75a2.0001,2.0001,0,0,0-2,2v12.5a2.0001,2.0001,0,0,0,2,2H87.5a2.0001,2.0001,0,0,0,2-2v-12.5A2.0001,2.0001,0,0,0,87.5,63.625ZM42.625,23.875h14.75v8.5H42.625ZM29.25,76.125H14.5v-8.5H29.25Zm28.125,0H42.625v-8.5h14.75Zm28.125,0H70.75v-8.5H85.5Z"></path>
</svg>
