<svg xmlns="http://www.w3.org/2000/svg" data-name="svg" viewBox="0 0 170 212.5" x="0px" y="0px"><path fill="#1387C1" d="m133.796,36.891c-23.863,0-47.728-17.78-71.591-17.782-.002,0-.003,0-.005,0l.004,10c10.129.001,20.9,4.014,32.303,8.262,12.563,4.681,25.555,9.52,39.289,9.52,5.681,0,11.06-.82,16.204-2.481v55.22c-5.059,2.893-10.306,4.26-16.204,4.26-10.129,0-20.901-4.013-32.304-8.262-12.563-4.681-25.553-9.52-39.287-9.52-5.681,0-11.06.82-16.204,2.481v-55.221c5.059-2.893,10.303-4.26,16.199-4.26v-10c-8.735,0-17.465,2.382-26.199,8.891v77c8.734-6.508,17.47-8.891,26.204-8.891,23.863,0,47.728,17.782,71.591,17.782,8.736,0,17.468-2.381,26.204-8.891V28c-8.734,6.508-17.47,8.891-26.204,8.891Z" stroke-width="0"/><path fill="#1387C1" d="m21,5c-6.627,0-12,5.373-12,12,0,4.841,2.872,9.001,7,10.898v132.102c0,2.761,2.239,5,5,5s5-2.239,5-5V27.898c4.128-1.897,7-6.058,7-10.898,0-6.627-5.373-12-12-12Z" stroke-width="0"/></svg>