<svg xmlns="http://www.w3.org/2000/svg" data-name="Layer 1" viewBox="0 0 100 125" x="0px" y="0px"><title>Artboard 28</title><path fill="#1387C1" d="M75,19H53a9,9,0,0,0-9,9V70.06l-.94.06a60.49,60.49,0,0,0-21.41,5.19,3,3,0,0,0,2.69,5.37A55.48,55.48,0,0,1,47,76a55.76,55.76,0,0,1,22.66,4.68,3,3,0,0,0,4-1.34,3,3,0,0,0-1.34-4,60.4,60.4,0,0,0-21.4-5.19L50,70.06V53H75a7,7,0,0,0,6.86-5.58,7.23,7.23,0,0,0-2.61-7L73.94,36l5.32-4.43a7.23,7.23,0,0,0,2.6-7A7,7,0,0,0,75,19Zm.64,7.77L65.32,35.37a.81.81,0,0,0,0,1.25l10.33,8.61A1,1,0,0,1,75,47H50V28a3,3,0,0,1,3-3H75A1,1,0,0,1,75.64,26.77Z"/><path fill="#1387C1" d="M18.67,28.1l2.82,1.42,1.4,2.81A1.22,1.22,0,0,0,24,33h0a1.22,1.22,0,0,0,1.1-.67l1.4-2.81,2.85-1.43A1.21,1.21,0,0,0,30,27a1.18,1.18,0,0,0-.66-1.07l-2.85-1.43-1.4-2.81a1.23,1.23,0,0,0-2.2,0l-1.4,2.81-2.82,1.42a1.22,1.22,0,0,0,0,2.18Z"/><path fill="#1387C1" d="M28.48,50.12l1.17,2.34a1,1,0,0,0,.92.56h0a1,1,0,0,0,.92-.56l1.17-2.34L35,48.93a1,1,0,0,0,.55-.91,1,1,0,0,0-.55-.89l-2.37-1.19L31.48,43.6a1,1,0,0,0-1.83,0l-1.17,2.34-2.35,1.18a1,1,0,0,0,0,1.82Z"/></svg>